<!DOCTYPE svg PUBLIC "-//W3C//DTD SVG 1.1//EN" "http://www.w3.org/Graphics/SVG/1.1/DTD/svg11.dtd">
<!-- Uploaded to: SVG Repo, www.svgrepo.com, Transformed by: SVG Repo Mixer Tools -->
<svg xmlns="http://www.w3.org/2000/svg" xmlns:xlink="http://www.w3.org/1999/xlink" version="1.1" id="Capa_1" viewBox="-45.5 -45.5 546.00 546.00" xml:space="preserve" width="64px" height="64px" fill="#000000" stroke="#000000" stroke-width="3.6399999999999997" transform="rotate(0)matrix(-1, 0, 0, 1, 0, 0)">
<g id="SVGRepo_bgCarrier" stroke-width="0"/>
<g id="SVGRepo_tracerCarrier" stroke-linecap="round" stroke-linejoin="round"/>
<g id="SVGRepo_iconCarrier"> <g> <polygon style="fill:#96ff70;" points="455,124.4 362.62,124.4 382.62,52.02 "/> <polygon style="fill:#a3d4ff;" points="382.62,124.4 382.62,205.56 305.84,128.79 382.62,52.02 "/> <polygon style="fill:#a3d4ff;" points="261.98,326.21 185.2,402.98 185.2,249.43 225.2,249.43 "/> <path style="fill:#a3d4ff;" d="M241.29,64.23l-80.64,120.65h-40C120.64,184.88,0,64.23,0,64.23H241.29z"/> <path style="fill:#96ff70;" d="M241.29,64.23L120.65,184.88l141.33,141.33l120.64-120.64C382.62,205.56,241.29,64.23,241.29,64.23z "/> <circle style="fill:#d8ff14;" cx="253.768" cy="247.019" r="7.5"/> <circle style="fill:#d8ff14;" cx="273.768" cy="207.019" r="7.5"/> </g> </g>
</svg>